<?xml version="1.0" encoding="utf-8"?>
<!-- Generator: Adobe Illustrator 17.0.0, SVG Export Plug-In . SVG Version: 6.00 Build 0)  -->
<!DOCTYPE svg PUBLIC "-//W3C//DTD SVG 1.1 Tiny//EN" "http://www.w3.org/Graphics/SVG/1.1/DTD/svg11-tiny.dtd">
<svg version="1.1" baseProfile="tiny" id="Layer_1" xmlns="http://www.w3.org/2000/svg" xmlns:xlink="http://www.w3.org/1999/xlink"
	 x="0px" y="0px" width="143.107px" height="52.881px" viewBox="0 0 143.107 52.881" xml:space="preserve">
<polygon fill="#AE1F24" points="143.107,52.881 126.205,0 122.93,0 121.418,0 118.217,0 102,50.522 85.852,0 82.576,0 81.064,0 
	77.863,0 61.646,50.522 45.498,0 40.711,0 57.686,52.881 60.887,52.881 62.399,52.881 65.674,52.881 81.823,2.36 98.039,52.881 
	101.241,52.881 102.754,52.881 106.028,52.881 122.178,2.36 138.394,52.881 "/>
<path fill="#AE1F24" d="M30.946,48.018c-3.117,3.118-7.717,4.822-13.21,4.822H0V0h17.736c5.493,0,10.093,1.704,13.21,4.822
	c5.343,5.342,5.124,13.73,5.124,20.855C36.07,32.802,36.289,42.671,30.946,48.018z M27.931,8.016
	c-2.984-3.057-6.982-4.004-11.13-4.004H4.284v44.817h12.517c4.147,0,8.145-0.948,11.13-4.004c4.146-4.217,3.85-13.388,3.85-19.133
	C31.78,19.946,32.077,12.233,27.931,8.016z"/>
<g>
</g>
<g>
</g>
<g>
</g>
<g>
</g>
<g>
</g>
<g>
</g>
</svg>
