<?xml version="1.0" encoding="utf-8"?>
<!-- Generator: Adobe Illustrator 18.1.1, SVG Export Plug-In . SVG Version: 6.00 Build 0)  -->
<svg version="1.1" id="Calque_1" xmlns="http://www.w3.org/2000/svg" xmlns:xlink="http://www.w3.org/1999/xlink" x="0px" y="0px"
	 viewBox="200 0 560.2 560.2" enable-background="new 200 0 560.2 560.2" xml:space="preserve">
<g>
	<g id="XMLID_2_">
		<g>
			<path fill="#F5AEB0" d="M481,0l-1,279.9l0.1,0.2l-262.5-97.8C245.3,108.1,304,46.1,384.3,16.9c31.6-11.5,64.1-16.9,95.8-17
				C480.3-0.2,480.6,0,481,0z"/>
			<path fill="#DEE2B1" d="M480.1,280.1L616.4,524l0.2,0.6c-13,7.2-26.5,13.6-40.9,18.8c-98.4,35.8-203.8,13.1-278.1-50.6
				L480.1,280.1L480.1,280.1L480.1,280.1L480.1,280.1z"/>
			<path fill="#99ABD6" d="M480.1,280.1l276.5-43.7c18.3,115.3-37.4,231.1-139.9,288.2l-0.2-0.6L480.1,280.1z"/>
			<path fill="#BFE0D7" d="M480,279.9L297.8,492.7c-35.4-30.5-63.8-70-80.9-116.8c-23.7-65.1-21.7-133.3,0.8-193.4L480,279.9z"/>
			<path fill="#FEDEA8" d="M480,279.7L481,0c114,0.3,220.8,71,262.3,184.3l-263.2,95.8L480,279.7z"/>
		</g>
	</g>
</g>
<text transform="matrix(1 0 0 1 309 154)" fill="#FFFFFF" font-family="'Oswald-Regular'" font-size="60">DWM</text>
<text transform="matrix(1 0 0 1 547 153)" fill="#FFFFFF" font-family="'Oswald-Regular'" font-size="60">3D</text>
<text transform="matrix(1 0 0 1 577 371.4951)" fill="#FFFFFF" font-family="'Oswald-Regular'" font-size="60">ANIM</text>
<text transform="matrix(1 0 0 1 428 474.4951)" fill="#FFFFFF" font-family="'Oswald-Regular'" font-size="60">JV</text>
<text transform="matrix(1 0 0 1 280 350.4951)" fill="#FFFFFF" font-family="'Oswald-Regular'" font-size="60">PP</text>
</svg>
