<?xml version="1.0" encoding="utf-8"?>
<!-- Generator: Adobe Illustrator 18.1.1, SVG Export Plug-In . SVG Version: 6.00 Build 0)  -->
<svg version="1.1" id="Layer_1" xmlns="http://www.w3.org/2000/svg" xmlns:xlink="http://www.w3.org/1999/xlink" x="0px" y="0px"
	 viewBox="208.4 199.3 260 260" enable-background="new 208.4 199.3 260 260" xml:space="preserve">
<g>
	<g>
		<path fill="#F5AEB0" d="M209.4,339.8c4.2,52.8,39.9,96.6,88.2,112.8l40.9-123.3L209.4,339.8z"/>
		<path fill="none" d="M441,409.1l4.7,3.4l-4.5-3.5C441,409,441,409.1,441,409.1z"/>
		<path fill="#6585C3" d="M297.4,452.6c0.1,0,0.1,0,0.2,0.1l40.9-123.4L297.4,452.6z"/>
		<path fill="#6585C3" d="M338.4,329.3l101,78.7l1.6,1.1c0,0,0.1-0.1,0.1-0.1L338.4,329.3z"/>
		<path fill="#DEE2B1" d="M468.4,329.3c0-26.2-8.1-51.1-21.5-71.5l-108.5,71.5L441.1,409C458.2,387,468.4,359.3,468.4,329.3z"/>
		<path fill="#BFE0D7" d="M441,409.1l-1.6-1.1l-101-78.7l-40.9,123.4c12.9,4.3,26.6,6.6,40.9,6.6C380.1,459.3,417.2,439.6,441,409.1
			z"/>
		<path fill="#99ABD6" d="M447,257.7c-23.3-35.2-63.2-58.5-108.5-58.5c-13.4,0-26.3,2-38.4,5.8l38.4,124.2L447,257.7z"/>
	</g>
	<g>
		<path fill="none" d="M208.4,329.3c0,3.6,0.2,7.1,0.5,10.6l129.5-10.6l-129.6-9.3C208.6,323,208.4,326.1,208.4,329.3z"/>
		<path fill="#FEDEA8" d="M208.8,319.9l129.6,9.3L300,205.1C249.8,220.6,212.6,265.6,208.8,319.9z"/>
	</g>
</g>
</svg>
